<svg id="Layer_1" data-name="Layer 1" xmlns="http://www.w3.org/2000/svg" viewBox="0 0 2000 2000"><defs><style>.cls-1,.cls-2{fill:#5dd62c;}.cls-2{stroke:#fff;stroke-miterlimit:10;}</style></defs><path class="cls-1" d="M534.6,1307.11V692.66a12.57,12.57,0,0,0,1.48-3.16c14.15-87,80.24-143.43,168.33-143.46q295.38-.1,590.74.06c10,0,20.08.3,29.89,1.93,83.43,13.87,140.25,80.94,140.29,165.54q.14,286.29,0,572.57c0,94.31-71.17,167.09-165.61,167.4q-299.91,1-599.83,0c-78.31-.22-142.54-51.71-160.76-126.33C537.5,1320.54,536.11,1313.81,534.6,1307.11ZM828.15,1058c5.39,0,9.61.17,13.8,0,24.76-1.13,49.79-.44,74.22-3.9,68.44-9.69,120.7-56.15,121.08-137.07.29-59.73-32.57-107.93-88.91-128-26.36-9.4-53.65-12.34-81.28-12.1-37.25.33-74.49,1.92-111.73,2.2-9.32.07-11.69,2.78-11.64,11.88.36,70.58.2,141.15.2,211.73,0,58.15.12,116.31-.14,174.46,0,7.85,2.25,10.66,10.32,10.47q31.8-.7,63.6,0c7.86.17,10.84-2.26,10.61-10.31-.45-16.65-.13-33.32-.13-50Zm251.42,44a12.53,12.53,0,0,0-.93,4.13c-.1,20.89,0,41.79-.13,62.68,0,6.23,3.33,9.06,8.55,11.3,25.18,10.8,51.81,14.35,78.81,15.47,28.69,1.18,57-1.52,83.35-14,32-15.11,51.19-40,54.36-75.76,3.34-37.73-12-66-45.15-84-15.89-8.64-32.74-15.5-49-23.39-13.83-6.7-27.81-13.2-41.09-20.87a15.82,15.82,0,0,1-7.66-18c1.9-7.87,7-12.77,14.87-14.12,8-1.39,16.17-2.91,24.23-2.71,26.82.64,52.93,5,77.37,17,7.53,3.69,10.85,1.85,10.94-5.73.22-19.68,0-39.36.06-59,0-5.58-2.37-9.34-7.88-10.61-13.22-3.05-26.34-7-39.75-8.69-30.48-3.91-61.16-5-90.86,4.68-37.73,12.28-63.57,36.56-69.19,77.23-5.57,40.26,12,70.37,46.62,89.75,21,11.76,43.79,20.31,65.52,30.82,7.8,3.77,15.73,8.12,22,13.91,9.44,8.67,6.69,22.09-4.92,27.65-4.29,2-9.19,3.87-13.84,3.93-16,.17-32.4,1.82-47.79-1.35C1125.23,1117.44,1103.14,1109.1,1079.57,1102Z"/><path class="cls-2" d="M829.14,984.16V854.06c29.86-.33,59.58-4.58,87.92,7.6,22.46,9.65,34.2,27.31,35.51,51.55,1.41,25.9-6.37,47.95-31.37,59.28a138,138,0,0,1-40.72,11.22C863.83,985.61,846.8,984.16,829.14,984.16Z"/></svg>