<svg id="Layer_1" data-name="Layer 1" xmlns="http://www.w3.org/2000/svg" viewBox="0 0 2000 2000"><defs><style>.cls-1{fill:#5dd62c;}</style></defs><path class="cls-1" d="M1003.67,1454h-5.32c-3-1.2-5.92-2.56-9-3.57Q827.06,1397,664.66,1343.75c-6.47-2.12-9.39-4.8-9.84-12-2.91-46-6.38-92-9.64-138q-6.55-92.43-13.09-184.86-7.58-106.12-15.23-212.26-6.84-95.52-13.63-191c-1.4-19.68-2.7-39.36-4.08-59.55h801.59c0,4.71.27,9.07,0,13.4-3.84,53.65-7.85,107.3-11.65,161q-9.3,131.34-18.43,262.71-12.28,173.8-24.57,347.61c-.5,7.08-2.64,10.73-9.87,13.09q-146.52,47.7-292.79,96.11C1030.05,1444.28,1016.91,1449.28,1003.67,1454Zm123.38-425.77c-3.2,44.66-6.24,88-9.66,131.29-.18,2.24-3.33,5.33-5.73,6.15q-53.25,18.07-106.75,35.45a16.09,16.09,0,0,1-9.37-.11c-35.64-11.62-71.24-23.36-106.7-35.52-2.59-.88-5.19-4.94-5.75-7.91-1.4-7.4-1.63-15-2.32-22.54H775.14c0,3.58-.19,6.76,0,9.91,2.1,29.78,4.48,59.54,6.25,89.34.35,6,2.17,8.56,7.9,10.45,68.11,22.48,136.1,45.33,204.22,67.79a23,23,0,0,0,13.47,0c68.11-22.46,136.08-45.33,204.19-67.8,5.77-1.9,7.68-4.63,8-10.47,1.85-29.5,4.14-59,6.26-88.45q5.88-81.81,11.72-163.62c1.42-19.92,2.75-39.85,4.18-60.81H866.12c-3.21-45.85-6.36-90.76-9.56-136.55H1251c2.51-35.68,5-70.59,7.45-105.8H742.12c8.17,116.53,16.3,232.52,24.48,349.15Z"/></svg>