<svg id="Layer_1" data-name="Layer 1" xmlns="http://www.w3.org/2000/svg" viewBox="0 0 2000 2000"><defs><style>.cls-1{fill:#5dd62c;}</style></defs><path class="cls-1" d="M1354,1449.4H653.88a44.71,44.71,0,0,0-5.1-1.57c-52.47-9.82-86.41-40.44-102.28-91.21-2-6.22-3-12.71-4.51-19.07v-700c.63-2.56,1.4-5.1,1.85-7.69,10.44-59.63,62.24-104,122.95-104.07q337.35-.32,674.7,0c68.2.09,124.19,55.94,124.29,124.14q.48,337.74,0,675.47c-.06,54.83-37.36,103.25-90,118.66C1368.64,1446.17,1361.3,1447.64,1354,1449.4Zm-296.39-328.14c15.24,16.32,17.62,37.17,17.27,58.92-.34,22-.33,43.89-.33,65.84,0,14.72,8.17,20.7,22.29,16.42,4.3-1.31,8.54-2.87,12.74-4.48,155-59.71,226-234.17,155.94-383.23-64.2-136.58-227-200.71-370.34-142.1C786,777.29,724,861.17,716.23,979.41c-6.42,98.28,33.68,178.25,111,239.22,24.73,19.5,52.42,33.87,82.32,43.8,11.35,3.76,21.5-.35,22-9.8.87-16.67.24-33.43.24-50.23-9.12.89-17.16,2.07-25.23,2.39-33.93,1.34-61.78-13.41-73.76-44.85a78.08,78.08,0,0,0-30.39-38.18c-4.37-2.89-7.16-8.16-10.68-12.34,6.12-1.23,12.24-2.48,18.37-3.69.27,0,.58.15.87.21,18.06,3.88,29.71,15.85,39.46,30.6,18.11,27.41,47.14,36,77.2,23.06,2-.87,4.52-2.37,5.29-4.2,5-11.91,9.6-24,14.29-35.92-3.33-.52-8.33-1.33-13.33-2.08-64.53-9.75-100.9-42.87-111.33-102.85-6.78-39-3.58-76.17,24-107.84,1.5-1.72,1.74-5.6,1-8-6-20.61-4.51-40.88,1.29-61.29,2.26-7.95,6.3-10.31,14.25-9.38,22.45,2.65,41.8,12.77,60.41,24.5,5.83,3.68,10.87,4.54,17.5,2.94,38.85-9.37,78.06-10.28,117.06-1.71,12.52,2.75,22.43,2,33.37-5.36,16-10.73,33.68-18.42,53.35-20.36,6.88-.68,11.87.53,12.83,8.48,1.72,14.22,6.9,29,4.48,42.49-3.28,18.24,1.46,31.26,10.79,46.5,21.09,34.44,17.1,72.22,6.87,109.18-9.8,35.38-32.92,59.76-67.53,71.94C1094.74,1112.75,1076.39,1116.32,1057.65,1121.26Z"/></svg>