<svg id="Layer_1" data-name="Layer 1" xmlns="http://www.w3.org/2000/svg" viewBox="0 0 2000 2000"><defs><style>.cls-1{fill:#5dd62c;}</style></defs><path class="cls-1" d="M1003.67,1458.77h-7.18a68,68,0,0,0-8-3.33q-145.63-40.7-291.29-81.29c-8-2.25-18.83-2.31-23.3-7.62-4.67-5.55-3.64-16.19-4.41-24.66q-8.76-96.34-17.23-192.72-7.58-85.67-15.06-171.33Q628.62,881.46,620,785.1q-7.79-87.45-15.51-174.89c-2-22.82-4-45.64-6-69h802.78a28,28,0,0,1,.21,3.84q-4.63,52.63-9.35,105.29-8.64,97.25-17.29,194.51-7.52,84.76-15,169.53-8.6,96.81-17.24,193.62c-4.43,50-8.94,99.93-13.07,149.92-.58,7.1-3.25,9.93-10.11,11.82q-124.64,34.37-249.08,69.43C1048,1445.45,1025.89,1452.23,1003.67,1458.77Zm125-451.34c-5,45.45-9.89,90.49-15.29,135.47-.3,2.5-4.65,5.67-7.68,6.52q-49.56,13.85-99.34,26.87a25.15,25.15,0,0,1-12.22.13c-33.46-8.79-66.8-18.08-100.28-26.83-5.23-1.36-7.29-3.55-7.71-8.85-1.89-23.51-4.28-47-6.13-70.51-.4-5.08-1.61-7.41-7.26-7.36-30.48.24-61,.13-91.45.2-1.08,0-2.17.6-3.82,1.09.68,7.63,1.32,15,2,22.44,4,44,8,88,11.81,132.07.43,5,1.83,7.65,7.33,9.15,65,17.72,130,35.85,195,53.63a25.78,25.78,0,0,0,12.94,0c63-17.18,125.92-34.88,189-51.71,9.67-2.58,13.33-6.39,14.15-16.36,4.94-60.42,10.57-120.79,16-181.17q12.52-140.1,25-280.2c1.23-13.85,2.27-27.72,3.43-41.85H745.76c2.25,32.05,4.46,63.45,6.66,94.79h392.32c-2.25,31.15-4.72,61.78-6.47,92.45-.44,7.57-2.43,10-10.38,10.13q-177.5,1.77-355,4.16c-3.18,0-6.37,0-10.47,0,3.43,32.67,6.72,64,10,95.75Z"/></svg>