<svg id="Layer_1" data-name="Layer 1" xmlns="http://www.w3.org/2000/svg" viewBox="0 0 2000 2000"><defs><style>.cls-1{fill:#5dd62c;}</style></defs><path class="cls-1" d="M515.72,1319.56V680.19a13.36,13.36,0,0,0,1.54-3.28C532,586.4,600.76,527.65,692.42,527.62q307.35-.11,614.71.06c10.37,0,20.89.32,31.09,2,86.82,14.43,146,84.22,146,172.25q.13,297.9,0,595.79c0,98.14-74.06,173.88-172.33,174.2q-312.09,1-624.17,0c-81.48-.23-148.31-53.8-167.28-131.45C518.74,1333.55,517.29,1326.54,515.72,1319.56Zm394.33-225.17c22.38,0,44.76.23,67.12-.14,6.1-.11,8.73,1.89,10.65,7.65,9.34,28,19.33,55.89,28.7,83.93,2.1,6.31,5.05,9.18,12,9.09,25.21-.34,50.42-.09,75.63-.16,9.75,0,10.61-1.21,7.34-10.47Q1039.42,980.58,967.3,776.86c-1.79-5.06-4.26-7.67-10.11-7.63q-48.21.35-96.43,0c-6.13,0-7.66,2.47-8.47,8.34-1.9,13.62-3.69,27.5-7.92,40.5C832.3,855.18,819,891.87,806.22,928.71q-44,126.57-88,253.15c-4.1,11.82-3.28,12.91,9.25,12.92,21.43,0,42.87-.3,64.29.16,8,.17,11.71-2.78,14.05-10.41,8.51-27.66,17.86-55,26.45-82.69,1.84-5.91,4.61-7.69,10.64-7.59C865.3,1094.61,887.68,1094.39,910.05,1094.39Zm336-59.92c0-50.41-.16-100.81.16-151.22,0-8.23-2.4-11.06-10.74-10.9-23.3.46-46.62.36-69.93,0-7.28-.1-10,2.34-10,9.76q.24,151.22,0,302.43c0,7.52,2.54,10.73,10.48,10.61,22.68-.37,45.38-.59,68,.08,9.77.29,12.24-3,12.17-12.42C1245.81,1133.39,1246,1083.93,1246,1034.47Zm5.64-247.32c0-29.95-19.86-50-49.44-50-29.19,0-50.94,21.48-50.92,50.35,0,30.37,20.72,51.19,50.83,51.15C1231.1,838.57,1251.71,817.16,1251.67,787.15Z"/><path class="cls-1" d="M909.77,846.1c16.84,54.83,33.68,109.66,50.84,165.51h-102l49.16-165.5Z"/><path class="cls-1" d="M515.72,1319.56V680.19a13.36,13.36,0,0,0,1.54-3.28C532,586.4,600.76,527.65,692.42,527.62q307.35-.11,614.71.06c10.37,0,20.89.32,31.09,2,86.82,14.43,146,84.22,146,172.25q.13,297.9,0,595.79c0,98.14-74.06,173.88-172.33,174.2q-312.09,1-624.17,0c-81.48-.23-148.31-53.8-167.28-131.45C518.74,1333.55,517.29,1326.54,515.72,1319.56Zm394.33-225.17c22.38,0,44.76.23,67.12-.14,6.1-.11,8.73,1.89,10.65,7.65,9.34,28,19.33,55.89,28.7,83.93,2.1,6.31,5.05,9.18,12,9.09,25.21-.34,50.42-.09,75.63-.16,9.75,0,10.61-1.21,7.34-10.47Q1039.42,980.58,967.3,776.86c-1.79-5.06-4.26-7.67-10.11-7.63q-48.21.35-96.43,0c-6.13,0-7.66,2.47-8.47,8.34-1.9,13.62-3.69,27.5-7.92,40.5C832.3,855.18,819,891.87,806.22,928.71q-44,126.57-88,253.15c-4.1,11.82-3.28,12.91,9.25,12.92,21.43,0,42.87-.3,64.29.16,8,.17,11.71-2.78,14.05-10.41,8.51-27.66,17.86-55,26.45-82.69,1.84-5.91,4.61-7.69,10.64-7.59C865.3,1094.61,887.68,1094.39,910.05,1094.39Zm336-59.92c0-50.41-.16-100.81.16-151.22,0-8.23-2.4-11.06-10.74-10.9-23.3.46-46.62.36-69.93,0-7.28-.1-10,2.34-10,9.76q.24,151.22,0,302.43c0,7.52,2.54,10.73,10.48,10.61,22.68-.37,45.38-.59,68,.08,9.77.29,12.24-3,12.17-12.42C1245.81,1133.39,1246,1083.93,1246,1034.47Zm5.64-247.32c0-29.95-19.86-50-49.44-50-29.19,0-50.94,21.48-50.92,50.35,0,30.37,20.72,51.19,50.83,51.15C1231.1,838.57,1251.71,817.16,1251.67,787.15Z"/><path class="cls-1" d="M909.77,846.1c16.84,54.83,33.68,109.66,50.84,165.51h-102l49.16-165.5Z"/></svg>