<svg id="Layer_1" data-name="Layer 1" xmlns="http://www.w3.org/2000/svg" viewBox="0 0 2000 2000"><defs><style>.cls-1{fill:#5dd62c;}</style></defs><path class="cls-1" d="M1005,1429H994.91a25.22,25.22,0,0,0-4.42-1.78Q819.87,1393,649.18,1359c-5.66-1.12-7.21-3.55-7.66-8.7-4.41-50-9-100.08-13.52-150.13q-8.73-96.73-17.41-193.5T592.82,813.18q-9.08-99.24-18.06-198.49C573.47,600.37,572.3,586,571,571h858v10.06a16.57,16.57,0,0,0-1.34,3.82q-6,65.45-11.91,130.91-8.71,96.74-17.39,193.47-10.47,115.07-21.11,230.11-9.59,105.48-18.88,211c-.46,5.2-2.12,7.54-7.72,8.64q-146.49,28.95-292.87,58.46C1040.11,1421,1022.57,1425.14,1005,1429Zm31.18-714.62v321.4h134.67c0,2.57.13,4.23,0,5.87-3.94,43.92-7.84,87.85-12.12,131.74-.22,2.24-3.52,5.5-5.88,6-21.8,4.74-43.71,9-65.59,13.36-17.11,3.45-34.22,6.93-50.91,10.31v72.27c2.68-.3,4.61-.36,6.47-.74q88.21-17.56,176.43-35.11c4.54-.89,5.74-3.24,6.08-7.33,1.3-15.57,2.83-31.13,4.25-46.7q7.23-79.21,14.44-158.44c1.86-20.5,3.64-41,5.56-62.66H1107.7v-179h158.17c2.13-23.94,4.21-47.15,6.33-71ZM763.41,1107.72c.66,7.67,1.25,14.84,1.9,22,3.07,33.91,6.22,67.81,9.17,101.74.41,4.8,1.94,7.21,7.13,8.23,50.08,9.8,100.1,19.91,150.15,29.89,10.51,2.09,21.07,4,31.76,6V714.36H892.74v474.29c-14.52-2.8-28.08-5.89-41.8-7.87-8-1.15-10.72-4.61-10.47-12.46.22-6.93-1-13.9-1.66-20.85q-1.89-19.86-3.86-39.75Z"/></svg>